<?xml version="1.0" encoding="UTF-8"?>
<svg xmlns="http://www.w3.org/2000/svg" version="1.1" viewBox="0 0 1100 1100">
  <defs>
    <style>
      .cls-1 {
        fill: #fd9900;
      }

      .cls-2 {
        fill: #fff;
      }
    </style>
  </defs>
  <!-- Generator: Adobe Illustrator 28.7.1, SVG Export Plug-In . SVG Version: 1.2.0 Build 142)  -->
  <g>
    <g id="Layer_1">
      <rect class="cls-2" x="119.68" y="120.69" width="856.96" height="856.96"/>
      <g>
        <path class="cls-1" d="M111.95,111.95v876.1h876.1V111.95H111.95ZM969.93,969.93H130.07V130.07h839.85v839.85Z"/>
        <g>
          <path class="cls-1" d="M202.01,664.96c-.57-.83-1.18-1.63-2.11-2.1-1.59-2.5-3.35-4.9-4.73-7.51-4.8-9.07-4.51-18.86-3.36-28.6.99-8.43,4.26-16.01,10.2-22.25,7.95-8.35,17.94-12.7,29.16-14.09,20.37-2.52,39.93.71,58.64,9.14,1.69.76,2.55,1.76,2.54,3.67-.06,7.95-.03,15.9-.03,23.85,0,2.04-.6,2.85-2.79,1.77-6.99-3.44-14.37-5.82-21.85-7.94-10.45-2.96-21.01-3.28-31.61-1.3-5.43,1.02-8.98,4.42-10.13,10-1.14,5.49.8,9.7,5.31,12.87,3.6,2.53,7.65,4,11.82,5.23,8.56,2.53,17.35,4.25,25.71,7.5,11.52,4.49,21.83,10.45,27.86,21.89.26.49.59.91,1.19,1.01,0,.19.02.38.02.56-.02.43-.17.91-.03,1.29,2.56,6.83,3,13.85,2.24,21.06-1.81,17.01-10.47,29.01-25.97,36.17-5.38,2.49-11.17,3.48-16.83,4.97-.35.02-.71.05-1.06.07-1.9-.35-3.76.21-5.64.31-12.62.71-25-.98-37.21-3.91-6.64-1.59-13.22-3.58-19.41-6.59-1.36-.66-2.78-1.22-2.76-3.23.07-8.56.06-17.12.06-25.68,0-1.81.77-1.83,2.22-1.27,2.08.81,3.97,2.17,6.29,2.3,0,0-.02-.01-.02-.01.53.31,1.02.73,1.59.93,10.83,3.75,21.93,6.39,33.31,7.72,7.07.82,14.19,1.48,21.11-1.01,2.61-.94,5.24-1.97,6.62-4.7l-.02-.2s0,.2,0,.2c4.55-4.31,4.44-11.94-.23-15.97h0c-.11-.62-.49-.97-1.1-1.06,0,0,0,0,0,0-.56-.99-1.37-1.65-2.51-1.87l-.14.17s.15-.16.15-.16c-1.6-1.51-3.5-2.43-5.66-2.82-.28-.11-.55-.21-.83-.32-3.48-1.84-7.29-2.65-11.09-3.46-.34-.08-.67-.16-1.01-.24-3.15-1.31-6.43-2.19-9.78-2.79-.23-.08-.47-.16-.7-.24-3.93-1.17-7.86-2.33-11.79-3.5l-.12-.11s-.16.02-.16.02c-.28-.58-.76-.78-1.37-.75-.29-.1-.57-.2-.86-.29-2.1-1.32-4.17-2.72-6.62-3.33-1.38-1.07-2.76-2.15-4.14-3.22-.51-1.02-1.29-1.76-2.35-2.18Z"/>
          <path class="cls-1" d="M511.5,704.13c0-.37,0-.74-.01-1.11.42-.5.18-1.02.07-1.54-2.95-13.45-2.21-26.75,1.82-39.85,3.41-11.07,9.41-20.46,18.94-27.33,10.76-7.75,22.98-10.14,35.95-9.46,15.61.82,28.09,7.49,36.79,20.59,8.88,13.36,11.15,28.36,10.23,44.03-.22,3.67-.29,3.67-3.89,3.71-20.68.2-41.37.43-62.05.57-2.21.02-3.35.49-2.56,2.92,2.54,7.74,7.44,13.33,15.15,16.19,6.14,2.27,12.46,1.71,18.74.75,7.08-1.09,13.89-3.22,20.53-5.86,2.37-.94,3.67-.78,4.6,1.99,2.09,6.24,4.5,12.38,6.9,18.52.74,1.9.39,3.01-1.47,3.87-19.4,9-39.58,12.53-60.61,7.68-15.22-3.51-26.95-12.17-34.47-26.18-1.49-2.77-2.12-5.94-4.09-8.46-.06-.17-.11-.34-.17-.52-.13-.17-.27-.34-.4-.51ZM563.19,669.97s0,.02,0,.03c4.52,0,9.03.02,13.55,0,2.95-.02,3.29-.45,2.95-3.34-.87-7.39-5.84-11.77-14.48-12.76-9.28-1.06-16.94,4.37-18.33,12.95-.33,2.04-.03,3.23,2.49,3.16,4.6-.14,9.21-.04,13.82-.04Z"/>
          <path class="cls-1" d="M313.74,711.64c-.09-.16-.18-.33-.27-.49-.12-.18-.25-.36-.37-.53.05-.14.07-.29.05-.44,1.03-2.96.26-6.02.47-9.03,1.01-15.03,8.73-27.92,24.2-32.84,2.2-.7,4.69-.56,6.6-2.16,5.09.01,10.18.03,15.26.04,6.88,1.34,13.85,2.25,20.57,4.39,1.76.56,1.85-.76,1.6-1.85-.83-3.59-2.27-6.82-5.63-8.86-3.82-2.31-8-3.29-12.39-3.37-6.77-.12-13.54-.17-20.31-.08-2.35.03-3.17-.74-3.13-3.11.11-6.86.03-13.72.02-20.58,0-4.23.05-4.34,4.43-4.32,9.12.05,18.23.18,27.35.27,8.24.08,16.4.43,24.08,4.05,7.63,3.59,13.68,8.6,16.78,16.73,1.27,3.32,1.35,6.9,2.57,10.2.02.35.04.7.06,1.05-.04.8-.14,1.61-.11,2.41.9,25.58.41,51.17.53,76.76,0,0-.05.04-.05.04-11.36-.02-22.72-.04-34.08-.06,0,0-.01-.02-.01-.02,0-2.64,0-5.29,0-7.93-.22-.1-.45-.2-.67-.3-2.53,2.5-5.42,4.42-8.7,5.71-.79.31-1.82.36-2.17,1.4-1.05.2-2.09.41-3.14.61-.91-.15-1.76.12-2.65.26-6.47,1-12.94,1.77-19.52.7-2.54-.41-4.95-1.63-7.61-1.31-.62-.23-1.24-.45-1.86-.68-.2-.3-.33-.74-.61-.87-6.72-3.16-12.11-7.9-16.52-13.82h0c-2.03-3.81-3.41-7.89-4.76-11.98ZM381.72,700.51c.36-3.2-.25-5.87-3.46-6.98-5.58-1.94-11.32-2.98-17.26-2.34-7.18.78-10.94,3.93-11.97,10-1.29,7.6,2.83,12.97,10.54,13.92,6.68.83,12.01-2.23,17.33-5.59,3.44-2.17,5.43-4.95,4.81-9Z"/>
          <path class="cls-1" d="M455.73,854.56c0,16.8-.06,33.6.06,50.4.02,2.73-.72,3.53-3.49,3.47-8.31-.18-16.62-.12-24.93.01-2.3.03-3.23-.57-3.18-3.02.04-2.08,1.17-5.02-.6-6.02-1.22-.69-2.78,2.31-4.4,3.44-15.32,10.71-31.82,13.5-49.23,6.27-11.13-4.62-16.5-14.35-19.47-25.54-1.39-5.25-2.21-10.61-2.24-16.05-.12-21.14-.16-42.27-.32-63.41-.02-2.54.67-3.47,3.35-3.43,8.67.16,17.34.13,26.01.01,2.41-.03,3.01.75,3.01,3.12.03,19.69.2,39.38.35,59.07.02,3.09.42,6.1,1.69,8.98,3.6,8.15,12.03,12.74,20.8,10.97,5.6-1.13,10.85-3.28,15.81-6.19,2.55-1.49,3.5-3.38,3.47-6.38-.18-21.59-.21-43.18-.23-64.76,0-5.49-.27-4.7,4.6-4.74,8.58-.06,17.16.07,25.74-.1,2.57-.05,3.15.83,3.14,3.23-.09,16.89-.05,33.78-.05,50.67h.09Z"/>
          <path class="cls-1" d="M717.38,647.5c0,3.7-.05,7.41.02,11.11.04,1.89-.5,2.42-2.38,1.72-6.79-2.51-13.78-4.31-20.92-5.47-6.33-1.03-12.68-1.91-19.13-1.32-2.46.23-4.8.84-6.83,2.34-3.81,2.81-3.41,7.47.87,9.57,2.55,1.25,5.33,1.57,8.12,1.9,9.71,1.17,19.22,3.09,28.06,7.61,12.2,6.25,18.53,17.98,16.96,31.73-.9,7.85-2.99,15.21-8.16,21.43-5.19,6.24-12.01,9.84-19.71,11.64-21.3,5-41.95,2.32-62.06-5.81-1.51-.61-1.97-1.52-1.95-3.09.07-7.86.09-15.72,0-23.58-.02-2.09.58-2.5,2.5-1.82,13.01,4.64,26.49,7.03,40.21,8.16,3.42.28,6.86.17,10.23-.71,2.61-.68,4.73-1.95,5.12-4.89.41-3.09-.34-5.73-3.28-7.4-4.67-2.66-9.91-3.26-15.06-4.12-7.02-1.18-14.14-1.84-20.69-5.03-11.99-5.84-17.91-15.7-18.49-28.7-.74-16.63,8.76-29.45,24.91-34.49,12.64-3.94,25.42-3.83,38.3-1.48,6.77,1.24,13.29,3.3,19.77,5.6,2.55.91,3.87,2.12,3.63,5.05-.27,3.32-.06,6.68-.06,10.02Z"/>
          <path class="cls-1" d="M548.85,796.33c2.48,1.75,5.53,1.97,8.29,2.95,19.74,7.01,31.32,20.9,35,41.4,2.1,11.71,1.83,23.39-1.65,34.84-5.25,17.26-16.6,28.79-33.75,34.09-18.57,5.73-36.79,4.9-53.82-5.34-17.11-10.29-25.23-26.01-26.41-45.55-.6-10.01.63-19.84,4.39-29.22,6.24-15.57,17.57-25.75,33.41-30.91,9.58-3.12,19.42-3.89,29.42-2.41,1.68.25,3.39.63,5.1.15,0,0,.03,0,.03,0ZM557.22,854.45c.02-7.85-1.7-14.71-6.06-20.84-7.69-10.83-21.79-11.95-31.24-2.69-10.42,10.2-11.68,29.97-3.1,42.36,8.7,12.56,23.45,13.47,33.35,2.14,5.28-6.03,6.89-13.55,7.05-20.97Z"/>
          <path class="cls-1" d="M442.91,644.5c0-22.12,0-44.24,0-66.36,0-3.43.09-3.52,3.44-3.51,8.85,0,17.7.14,26.54-.04,2.75-.06,3.28.89,3.28,3.39-.07,41.35-.06,82.71-.06,124.06,0,.99,0,1.99.13,2.97.91,6.4,3.21,8.19,9.59,7.54,2.78-.28,5.56-.55,8.34-.83,1.5-.15,2.09.48,2.08,2.01-.05,7.31-.05,14.63-.03,21.94,0,1.41-.56,2.14-1.94,2.46-10.86,2.47-21.73,3.27-32.71.61-9.4-2.28-16.43-10.42-17.88-20.59-.88-6.21-.77-12.42-.78-18.65-.03-18.33-.01-36.66-.01-54.99Z"/>
          <path class="cls-1" d="M195.65,761.81c20.49-.03,41-.68,61.46.09,18.76.71,35.8,7.1,50.05,19.86.26.23.62.34.94.51,3.22,3.99,7,7.47,9.86,11.81,6.84,10.37,10.43,21.75,11.02,34.06.75,15.54-1.2,30.69-8.1,44.81-8.45,17.29-22.65,27.64-40.88,32.9-9.18,2.65-18.58,3.52-28.09,3.52-17.7-.01-35.39-.02-53.09.04-2.18,0-3.25-.4-3.24-2.95.08-48.21.07-96.43.07-144.65ZM229.91,835.74s.06,0,.09,0c0,6.86,0,13.72,0,20.58,0,6.95.07,13.9-.04,20.85-.03,2.1.57,2.84,2.74,2.81,7.49-.11,14.98-.1,22.47-.02,4.66.05,9.18-.74,13.57-2.17,9.42-3.06,15.89-9.41,19.63-18.48,5.03-12.2,5.06-24.85,2.54-37.52-3.97-19.95-16.76-30.32-37.07-30.45-6.95-.04-13.9.07-20.85-.06-2.31-.04-3.17.57-3.15,3.03.1,13.81.05,27.62.05,41.43Z"/>
        </g>
      </g>
    </g>
  </g>
</svg>